<svg viewBox="0 0 208 41" xmlns="http://www.w3.org/2000/svg" data-logo="logo">
          <g transform="translate(0, 0) rotate(0)" id="logogram" style="opacity: 1; transition: 0.2s;"><path fill="#192657" d="M0.760437 30.7827L0.76044 10.7827L10.7604 16.3383V25.2827L18.7605 29.7827L26.7605 25.2827V16.3383L36.7605 10.7827V30.7827L18.7605 40.7827L0.760437 30.7827Z"></path><path fill="url(#paint0_linear_5558_2243)" d="M5.76045 13.5605L0.760437 10.7827L18.7605 0.782715L36.7605 10.7827L31.7605 13.5605V28.2827L18.7605 35.7828L5.76044 28.2827L5.76045 13.5605ZM31.2189 13.8615L26.7605 16.3383V16.2827L18.7605 11.7827L10.7604 16.2827V16.3383L6.30211 13.8615V27.9751L18.7605 35.1626L31.2189 27.9751V13.8615Z" clip-rule="evenodd" fill-rule="evenodd"></path></g>
          <g transform="translate(43, 3)" id="logotype" style="opacity: 0.3; transition: 0.2s;"><path d="M8.17 10.43L14.16 10.43L14.16 35L8.17 35L8.17 10.43ZM27.39 35.24Q24.69 35.24 22.56 34.37Q20.42 33.49 19.14 31.78Q17.87 30.06 17.80 27.65L17.80 27.65L24.17 27.65Q24.31 29.02 25.11 29.73Q25.92 30.45 27.21 30.45L27.21 30.45Q28.54 30.45 29.31 29.84Q30.08 29.23 30.08 28.14L30.08 28.14Q30.08 27.23 29.47 26.63Q28.86 26.04 27.96 25.66Q27.07 25.27 25.43 24.78L25.43 24.78Q23.05 24.04 21.54 23.31Q20.04 22.57 18.95 21.14Q17.87 19.70 17.87 17.39L17.87 17.39Q17.87 13.96 20.35 12.02Q22.84 10.08 26.83 10.08L26.83 10.08Q30.89 10.08 33.37 12.02Q35.86 13.96 36.03 17.43L36.03 17.43L29.56 17.43Q29.49 16.24 28.68 15.56Q27.88 14.87 26.62 14.87L26.62 14.87Q25.53 14.87 24.87 15.45Q24.20 16.03 24.20 17.11L24.20 17.11Q24.20 18.30 25.32 18.97Q26.44 19.63 28.82 20.41L28.82 20.41Q31.20 21.21 32.69 21.95Q34.18 22.68 35.26 24.08Q36.35 25.48 36.35 27.68L36.35 27.68Q36.35 29.79 35.28 31.50Q34.21 33.22 32.18 34.23Q30.15 35.24 27.39 35.24L27.39 35.24ZM60.81 10.43L67.85 10.43L67.85 35L61.86 35L61.86 20.27L56.37 35L51.54 35L46.01 20.23L46.01 35L40.02 35L40.02 10.43L47.09 10.43L53.99 27.44L60.81 10.43ZM88.92 35L87.45 30.66L78.28 30.66L76.81 35L70.54 35L79.43 10.43L86.36 10.43L95.25 35L88.92 35ZM79.85 26.04L85.91 26.04L82.86 17.04L79.85 26.04ZM97.95 10.43L103.93 10.43L103.93 35L97.95 35L97.95 10.43ZM114.26 10.43L114.26 30.38L122.10 30.38L122.10 35L108.27 35L108.27 10.43L114.26 10.43ZM141.59 10.43Q145.47 10.43 148.38 11.97Q151.28 13.51 152.88 16.29Q154.47 19.07 154.47 22.71L154.47 22.71Q154.47 26.32 152.88 29.12Q151.28 31.92 148.36 33.46Q145.44 35 141.59 35L141.59 35L132.38 35L132.38 10.43L141.59 10.43ZM141.21 29.82Q144.60 29.82 146.49 27.96Q148.38 26.11 148.38 22.71L148.38 22.71Q148.38 19.32 146.49 17.43Q144.60 15.54 141.21 15.54L141.21 15.54L138.37 15.54L138.37 29.82L141.21 29.82ZM160.63 35.28Q159.06 35.28 158.06 34.35Q157.06 33.42 157.06 32.06L157.06 32.06Q157.06 30.66 158.06 29.71Q159.06 28.77 160.63 28.77L160.63 28.77Q162.17 28.77 163.17 29.71Q164.16 30.66 164.16 32.06L164.16 32.06Q164.16 33.42 163.17 34.35Q162.17 35.28 160.63 35.28L160.63 35.28Z" fill="#192657"></path></g>
          <defs xmlns="http://www.w3.org/2000/svg">
<linearGradient gradientUnits="userSpaceOnUse" y2="8.5605" x2="32.7605" y1="8.56049" x1="5.76044" id="paint0_linear_5558_2243">
<stop stop-color="#64C2DB"></stop>
<stop stop-color="#7476ED" offset="0.307292"></stop>
<stop stop-color="#C994DF" offset="0.604167"></stop>
<stop stop-color="#E56F8C" offset="1"></stop>
</linearGradient>
</defs>
        </svg>