
        <svg data-logo="logo" xmlns="http://www.w3.org/2000/svg" viewBox="0 0 44 41">
          <g id="logogram" transform="translate(0, 0) rotate(0)"><path d="M0.760437 30.7827L0.76044 10.7827L10.7604 16.3383V25.2827L18.7605 29.7827L26.7605 25.2827V16.3383L36.7605 10.7827V30.7827L18.7605 40.7827L0.760437 30.7827Z" fill="#192657"/><path fill-rule="evenodd" clip-rule="evenodd" d="M5.76045 13.5605L0.760437 10.7827L18.7605 0.782715L36.7605 10.7827L31.7605 13.5605V28.2827L18.7605 35.7828L5.76044 28.2827L5.76045 13.5605ZM31.2189 13.8615L26.7605 16.3383V16.2827L18.7605 11.7827L10.7604 16.2827V16.3383L6.30211 13.8615V27.9751L18.7605 35.1626L31.2189 27.9751V13.8615Z" fill="url(#paint0_linear_5558_2243)"/></g>
          <g id="logotype" transform="translate(43, 20.5)"><path fill="#192657" d=""/></g>
          <defs xmlns="http://www.w3.org/2000/svg">
<linearGradient id="paint0_linear_5558_2243" x1="5.76044" y1="8.56049" x2="32.7605" y2="8.5605" gradientUnits="userSpaceOnUse">
<stop stop-color="#64C2DB"/>
<stop offset="0.307292" stop-color="#7476ED"/>
<stop offset="0.604167" stop-color="#C994DF"/>
<stop offset="1" stop-color="#E56F8C"/>
</linearGradient>
</defs>
        </svg>
      